<svg width="22" height="20" viewBox="0 0 22 20" fill="none" xmlns="http://www.w3.org/2000/svg">
<path d="M18.1484 19.168C19.2292 19.168 20.0495 18.9108 20.6094 18.3965C21.1693 17.8887 21.4492 17.0977 21.4492 16.0234V4.03125C21.4492 2.96354 21.1693 2.15299 20.6094 1.59961C20.0495 1.03971 19.2292 0.759766 18.1484 0.759766H9.73047C9.2487 0.759766 8.81576 0.802083 8.43164 0.886719C8.05404 0.971354 7.70247 1.11458 7.37695 1.31641C7.05143 1.51823 6.73242 1.79167 6.41992 2.13672L1.05859 7.9375C0.804688 8.21094 0.602865 8.46159 0.453125 8.68945C0.303385 8.91732 0.195964 9.13216 0.130859 9.33398C0.0657552 9.53581 0.0332031 9.74089 0.0332031 9.94922C0.0332031 10.2617 0.108073 10.5742 0.257812 10.8867C0.414062 11.1927 0.68099 11.5573 1.05859 11.9805L6.42969 17.7422C6.74219 18.0938 7.0612 18.3737 7.38672 18.582C7.71224 18.7904 8.0638 18.9401 8.44141 19.0312C8.81901 19.1224 9.2487 19.168 9.73047 19.168H18.1484ZM17.9629 17H9.61328C9.28776 17 9.00781 16.9512 8.77344 16.8535C8.54557 16.7559 8.32096 16.5866 8.09961 16.3457L2.76758 10.623C2.63737 10.4928 2.54622 10.3757 2.49414 10.2715C2.44857 10.1608 2.42578 10.0534 2.42578 9.94922C2.42578 9.7474 2.53971 9.52279 2.76758 9.27539L8.08984 3.5332C8.31771 3.29232 8.54557 3.13281 8.77344 3.05469C9.00781 2.97005 9.28451 2.92773 9.60352 2.92773H17.9629C18.3926 2.92773 18.7181 3.03841 18.9395 3.25977C19.1673 3.47461 19.2812 3.80664 19.2812 4.25586V15.6719C19.2812 16.1211 19.1673 16.4564 18.9395 16.6777C18.7181 16.8926 18.3926 17 17.9629 17ZM9.4375 14.041C9.72396 14.041 9.95833 13.9466 10.1406 13.7578L12.5625 11.3262L15.0039 13.7578C15.1927 13.9466 15.4238 14.041 15.6973 14.041C15.9642 14.041 16.1888 13.9499 16.3711 13.7676C16.5534 13.5788 16.6445 13.3509 16.6445 13.084C16.6445 12.8301 16.5501 12.6055 16.3613 12.4102L13.9297 9.96875L16.3711 7.51758C16.5599 7.32878 16.6543 7.10742 16.6543 6.85352C16.6543 6.5931 16.5632 6.37174 16.3809 6.18945C16.1986 6.00065 15.974 5.90625 15.707 5.90625C15.4401 5.90625 15.2122 6.00065 15.0234 6.18945L12.5625 8.63086L10.1309 6.19922C9.94857 6.01042 9.71745 5.91602 9.4375 5.91602C9.17708 5.91602 8.95247 6.00716 8.76367 6.18945C8.58138 6.37174 8.49023 6.59635 8.49023 6.86328C8.49023 7.11719 8.58464 7.33854 8.77344 7.52734L11.2148 9.96875L8.77344 12.4199C8.58464 12.6087 8.49023 12.8301 8.49023 13.084C8.49023 13.3509 8.58138 13.5788 8.76367 13.7676C8.95247 13.9499 9.17708 14.041 9.4375 14.041Z" fill="#7B61FF"/>
</svg>
